<svg xmlns="http://www.w3.org/2000/svg" viewBox="0 0 56 56"><defs><style>.cls-1{opacity:0.25;}.cls-2{fill:#fff;}.cls-3{fill:#e0ecff;}.cls-4{fill:#788dab;}.cls-5{fill:#a1b9e3;}.cls-6{fill:#555f66;}.cls-7{fill:#a4b3c9;}.cls-8{fill:#e94589;opacity:0;}</style></defs><title>calender_menu</title><g id="Layer_2" data-name="Layer 2"><g id="Freddy_Fox" data-name="Freddy Fox"><path class="cls-1" d="M6.1,8,7.41,51.05s17,4.68,22.55,4.45,24-1.86,24-1.86-.91-35-1.64-40.2l-.71-5Z"/><path class="cls-2" d="M33.51,46.4v0h1.23C34.26,46.42,33.84,46.4,33.51,46.4Z"/><path class="cls-2" d="M41.25,36.4a.23.23,0,0,1-.11,0,3.21,3.21,0,0,1,.19.31C41.3,36.58,41.28,36.49,41.25,36.4Z"/><path class="cls-2" d="M49.46,49.71c-1.6-13.68,1.26-27.52-1-41.16,0,6.81-.8,13.6-1.05,20.42-.14,3.8-.09,7.62-.13,11.42,0,3.15-.06,6.29,0,9.43l1.09,0A4.79,4.79,0,0,1,49.46,49.71Z"/><path class="cls-2" d="M4.16,27.67c-.49,6.95-1.29,14-1,21a.38.38,0,0,1-.06.22c7.72-.19,15.34,1.63,23,1.93a116.62,116.62,0,0,0,12.11-.46c2.75-.18,5.49-.36,8.24-.51-.15-7-.09-14,.23-20.89.33-7.44,1.17-14.85,1.07-22.3-3.67-.14-7.36.11-11,.08s-7.32-.2-11-.09c-6.88.2-14,1-20.87-.32A199.8,199.8,0,0,1,4.16,27.67ZM6.49,45.43a.39.39,0,0,1,0-.25,69.19,69.19,0,0,0,.78-11.59.28.28,0,0,1,.51-.14h0A.29.29,0,0,1,8,33.33c1,.14,2,.26,3,.37a.29.29,0,0,1,.26,0c1.52.17,3,.3,4.54.41a.32.32,0,0,1,.6,0c1.49.1,3,.19,4.49.26a.33.33,0,0,1,.52,0c1.57.07,3.14.13,4.72.17h.18c0-.34.56-.47.62-.09,0,0,0,.08,0,.12,1.88.06,3.76.16,5.64.28.08-.23.41-.34.52-.07l0,.1,1.93.13c1.09.07,2.19,0,3.28.06a.3.3,0,0,1,.56,0,8.21,8.21,0,0,1,2.47.49.47.47,0,0,1,.14.08.24.24,0,0,1,.15.13,14.49,14.49,0,0,1,1.09,5.46c0,.16,0,.33,0,.49a.33.33,0,0,1,0,.22,19.48,19.48,0,0,1-.24,5.34c-.08.39-.56.36-.75.12l-2.57-.13a.49.49,0,0,1-.41,0c-2.3-.12-4.59-.24-6.9-.24-1.81,0-3.62,0-5.43,0a.43.43,0,0,1-.16,0c-1.53,0-3.06-.08-4.58-.2a.35.35,0,0,1-.45,0c-1.46-.13-2.92-.29-4.39-.3-.57,0-1.14,0-1.71,0a.4.4,0,0,1-.6,0c-.25,0-.52,0-.78-.05-1.23-.11-2.45-.25-3.68-.35a.38.38,0,0,1-.62,0c-1-.07-2-.12-2.94-.11A.33.33,0,0,1,6.49,45.43Z"/><path class="cls-3" d="M7.88,8.68s-2,13.42-.83,21.44c0,0,27.48,3.46,35.84,3.07,0,0,2.15-17.77,0-23.31C43.94,10,18.43,8.24,7.88,8.68Z"/><path class="cls-3" d="M39.37,38.67c.79,0,1.57-.07,2.35-.12-.1-.63-.23-1.26-.39-1.87a3.21,3.21,0,0,0-.19-.31h0a5.94,5.94,0,0,0-2-.46A18.49,18.49,0,0,1,39.37,38.67Z"/><path class="cls-3" d="M10.36,36.93l.33-2.55c-.94-.15-1.88-.32-2.81-.53l-.09,0c0,1,0,1.95,0,2.93C8.66,36.79,9.51,36.86,10.36,36.93Z"/><path class="cls-3" d="M7.75,33.45h0Z"/><path class="cls-3" d="M26.87,46.4c1.77,0,3.54,0,5.32,0h.6c.05-.54.11-1.1.18-1.67L27,44.56Z"/><path class="cls-3" d="M20.5,44.38c-1.75-.05-3.51-.1-5.27-.17a15.88,15.88,0,0,0,0,1.69c.64,0,1.28,0,1.92,0,1.26,0,2.51.14,3.76.25A6,6,0,0,1,20.5,44.38Z"/><path class="cls-3" d="M21.61,38.56c-.08.61-.17,1.22-.25,1.83,1.37,0,2.74.1,4.11.18l1.07,0q0-.87,0-1.74l-1.71-.1Z"/><path class="cls-3" d="M14.53,45.89a13.92,13.92,0,0,1,0-1.71c-1.43-.07-2.86-.15-4.29-.26q0,.8,0,1.59c1.24.1,2.48.24,3.74.35Z"/><path class="cls-3" d="M9.54,45.46l.09-1.58-2.36-.21-.18,1.59a.29.29,0,0,1,0,.14C7.89,45.38,8.72,45.41,9.54,45.46Z"/><path class="cls-3" d="M10.58,40.22q2.26,0,4.53,0c.13-.72.26-1.43.37-2.15-1.52-.12-3.05-.26-4.57-.42C10.8,38.52,10.68,39.37,10.58,40.22Z"/><path class="cls-3" d="M15.81,40.26c1.64,0,3.28.06,4.92.11.08-.61.17-1.23.24-1.85-1.6-.11-3.19-.23-4.79-.36C16.07,38.86,15.94,39.56,15.81,40.26Z"/><path class="cls-3" d="M7.61,40.22H10c.09-.86.2-1.73.3-2.6-.83-.08-1.66-.18-2.49-.28C7.74,38.3,7.68,39.26,7.61,40.22Z"/><path class="cls-3" d="M16.28,37.47c1.58.15,3.16.3,4.74.43a10.54,10.54,0,0,0-.1-2.75c-1.49,0-3-.1-4.48-.18A16.15,16.15,0,0,1,16.28,37.47Z"/><path class="cls-3" d="M27.25,38.35c2,.12,4.07.23,6.12.3a10.6,10.6,0,0,0-.61-3c-1.91-.14-3.82-.23-5.73-.3C27.16,36.33,27.22,37.34,27.25,38.35Z"/><path class="cls-3" d="M34,38.66c1.59.05,3.17.06,4.75,0a24.36,24.36,0,0,0-.33-2.82H37.17c-1.2,0-2.37-.08-3.57-.17l-.2,0A11.48,11.48,0,0,1,34,38.66Z"/><path class="cls-3" d="M37.38,46.51l1.29.08c0-.54,0-1.07,0-1.61-1.68-.1-3.37-.14-5-.2-.06.54-.12,1.09-.17,1.62.33,0,.75,0,1.23,0C35.62,46.45,36.5,46.48,37.38,46.51Z"/><path class="cls-3" d="M26.29,44.54l-1.5,0-3.6-.09a5.94,5.94,0,0,0,.55,1.8c1.46.11,2.93.16,4.4.19Z"/><path class="cls-3" d="M15.58,37.4a18.72,18.72,0,0,0,.21-2.48c-1.5-.1-3-.24-4.47-.45-.09.84-.2,1.67-.31,2.51C12.53,37.11,14.06,37.25,15.58,37.4Z"/><path class="cls-3" d="M9.9,40.83c-.78,0-1.57.06-2.35.11l-.21,2.11,2.34.13C9.75,42.39,9.82,41.61,9.9,40.83Z"/><path class="cls-3" d="M27.24,40.65c2,.08,4.08.13,6.13.22,0-.59,0-1.17,0-1.74-2,0-4.09-.11-6.13-.21C27.26,39.49,27.26,40.07,27.24,40.65Z"/><path class="cls-3" d="M27.22,41.34q-.06,1.26-.15,2.52c2,.06,4,.12,6,.2.1-.81.19-1.62.26-2.44C31.28,41.55,29.25,41.44,27.22,41.34Z"/><path class="cls-3" d="M21.59,35.17A10.38,10.38,0,0,1,21.67,38c1.06.09,2.13.17,3.19.24l1.71.1c0-1-.08-2-.19-3l-1.41,0C23.85,35.22,22.72,35.2,21.59,35.17Z"/><path class="cls-3" d="M42.12,42.34c-.9-.18-1.81-.3-2.72-.4,0,.83,0,1.66,0,2.49.94,0,1.88.1,2.82.12C42.21,43.81,42.17,43.06,42.12,42.34Z"/><path class="cls-3" d="M41.9,46.8a7.64,7.64,0,0,0,.26-1.53c-.92-.11-1.85-.19-2.78-.25,0,.54,0,1.09.07,1.63C40.27,46.72,41.09,46.79,41.9,46.8Z"/><path class="cls-3" d="M39.41,41.27c.89.09,1.77.21,2.65.34v-.08c-.06-.77-.13-1.55-.24-2.32l-2.43,0C39.42,39.89,39.42,40.58,39.41,41.27Z"/><path class="cls-3" d="M38.74,44.39c0-.83.06-1.67.07-2.5-1.6-.14-3.22-.2-4.83-.25,0,.82-.13,1.63-.22,2.45h0C35.43,44.16,37.09,44.28,38.74,44.39Z"/><path class="cls-3" d="M34,40.89c1.6.08,3.2.17,4.79.32,0-.67,0-1.35,0-2l-4.75,0A17,17,0,0,1,34,40.89Z"/><path class="cls-3" d="M26.35,43.84c.06-.85.12-1.69.16-2.54L25,41.22,21.27,41a14,14,0,0,0-.15,2.65l3.67.12Z"/><path class="cls-3" d="M15,40.8c-1.5,0-3,0-4.5,0q-.13,1.2-.21,2.4l4.32.21C14.71,42.54,14.85,41.67,15,40.8Z"/><path class="cls-3" d="M20.61,41.36c0-.12,0-.24,0-.36-1.64-.08-3.3-.14-4.95-.18-.16.87-.31,1.75-.4,2.63,1.72.08,3.44.15,5.17.21A21.36,21.36,0,0,1,20.61,41.36Z"/><path class="cls-4" d="M50.88,49.67l-.6,0c-1-7.15-.42-14.5-.19-21.7s.48-14.61-1.39-21.56c0,0,0,0,0-.07a.35.35,0,0,1-.35.08c-.28-.09-.56-.2-.84-.32a4.38,4.38,0,0,1-1.84.31,7,7,0,0,1-1.8-.31,2.46,2.46,0,0,1-1.76.44,3.12,3.12,0,0,1-1.36-.5H39.61a3.56,3.56,0,0,1-2.33.52A2.14,2.14,0,0,1,36.06,6h-.42a4,4,0,0,1-2.73,0A5.7,5.7,0,0,1,29.33,6h-.65a4.15,4.15,0,0,1-2.93.32,4.17,4.17,0,0,1-3.34.05l-.49-.2-2,0a3.86,3.86,0,0,1-2.42,0h-.74a2.9,2.9,0,0,1-1,.44,2.62,2.62,0,0,1-2.11-.43h-.5A4.18,4.18,0,0,1,9,6.3a2.48,2.48,0,0,1-1.34.35A3.23,3.23,0,0,1,6,6.06a3.34,3.34,0,0,1-.76.3.35.35,0,0,1-.31-.6v0a.28.28,0,0,0-.56,0c.16,7.32-.28,14.63-.85,21.93-.28,3.58-.56,7.16-.77,10.75-.19,3.42-.18,6.84-.33,10.26a.34.34,0,0,0,.08.23H2.33a.33.33,0,0,0,0,.65c8-.08,15.85,1.68,23.83,2a119.55,119.55,0,0,0,12.11-.45c2.73-.17,5.5-.44,8.26-.56,0,.31,0,.63,0,.94,0,.54.86.54.83,0,0-.32,0-.65,0-1,.74,0,1.49,0,2.23,0a.41.41,0,0,0,.77,0h.54A.42.42,0,0,0,50.88,49.67Zm-25.07-43c3.66-.11,7.31.06,11,.09s7.35-.22,11-.08c.1,7.45-.74,14.86-1.07,22.3-.32,6.93-.38,13.94-.23,20.89-2.75.15-5.49.33-8.24.51a116.62,116.62,0,0,1-12.11.46c-7.7-.3-15.32-2.12-23-1.93a.38.38,0,0,0,.06-.22c-.31-7,.49-14.06,1-21A199.8,199.8,0,0,0,4.94,6.34C11.76,7.61,18.93,6.86,25.81,6.66ZM48.4,49.77l-1.09,0c-.1-3.14-.08-6.28,0-9.43,0-3.8,0-7.62.13-11.42.25-6.82,1-13.61,1.05-20.42,2.27,13.64-.59,27.48,1,41.16h0Z"/><path class="cls-5" d="M6.61,46.05c1,0,2,0,2.94.11a.38.38,0,0,0,.62,0c1.23.1,2.45.24,3.68.35.26,0,.53,0,.78.05a.4.4,0,0,0,.6,0c.57,0,1.14,0,1.71,0,1.47,0,2.93.17,4.39.3a.35.35,0,0,0,.45,0c1.52.12,3,.17,4.58.2a.43.43,0,0,0,.16,0c1.81,0,3.62,0,5.43,0,2.31,0,4.6.12,6.9.24a.49.49,0,0,0,.41,0l2.57.13c.19.24.67.27.75-.12a19.48,19.48,0,0,0,.24-5.34.33.33,0,0,0,0-.22c0-.16,0-.33,0-.49a14.49,14.49,0,0,0-1.09-5.46.24.24,0,0,0-.15-.13.47.47,0,0,0-.14-.08,8.21,8.21,0,0,0-2.47-.49.3.3,0,0,0-.56,0c-1.09,0-2.19,0-3.28-.06L33.15,35l0-.1c-.11-.27-.44-.16-.52.07-1.88-.12-3.76-.22-5.64-.28,0,0,0-.08,0-.12-.06-.38-.59-.25-.62.09h-.18c-1.58,0-3.15-.1-4.72-.17a.33.33,0,0,0-.52,0c-1.5-.07-3-.16-4.49-.26a.32.32,0,0,0-.6,0c-1.51-.11-3-.24-4.54-.41a.29.29,0,0,0-.26,0c-1-.11-2-.23-3-.37a.29.29,0,0,0-.27.12h0a.28.28,0,0,0-.51.14,69.19,69.19,0,0,1-.78,11.59.39.39,0,0,0,0,.25A.33.33,0,0,0,6.61,46.05ZM7.79,33.81l.09,0c.93.21,1.87.38,2.81.53l-.33,2.55c-.85-.07-1.7-.14-2.56-.19C7.83,35.76,7.83,34.78,7.79,33.81Zm33.35,2.56a.23.23,0,0,0,.11,0c0,.09,0,.18.08.28.16.61.29,1.24.39,1.87-.78.05-1.56.09-2.35.12a18.49,18.49,0,0,0-.31-2.77,5.94,5.94,0,0,1,2,.46Zm.92,5.16v.08c-.88-.13-1.76-.25-2.65-.34,0-.69,0-1.38,0-2.08l2.43,0C41.93,40,42,40.76,42.06,41.53Zm-2.69,2.9c0-.83,0-1.66,0-2.49.91.1,1.82.22,2.72.4.05.72.09,1.47.07,2.21C41.25,44.53,40.31,44.48,39.37,44.43Zm2.79.84a7.64,7.64,0,0,1-.26,1.53c-.81,0-1.63-.08-2.45-.15,0-.54-.06-1.09-.07-1.63C40.31,45.08,41.24,45.16,42.16,45.27Zm-9.37,1.15h-.6c-1.78,0-3.55,0-5.32,0L27,44.56l5.95.19C32.9,45.32,32.84,45.88,32.79,46.42Zm-5.72-2.56q.09-1.26.15-2.52c2,.1,4.06.21,6.1.28-.07.82-.16,1.63-.26,2.44C31.06,44,29.07,43.92,27.07,43.86ZM7.55,40.94c.78,0,1.57-.08,2.35-.11-.08.78-.15,1.56-.22,2.35l-2.34-.13Zm3-.13c1.5,0,3,0,4.5,0-.16.87-.3,1.74-.39,2.62l-4.32-.21Q10.38,42,10.51,40.81Zm5.19,0c1.65,0,3.31.1,4.95.18,0,.12,0,.24,0,.36a21.36,21.36,0,0,0-.14,2.3c-1.73-.06-3.45-.13-5.17-.21C15.39,42.57,15.54,41.69,15.7,40.82Zm5.57.21,3.75.19,1.49.08c0,.85-.1,1.69-.16,2.54l-1.56,0-3.67-.12A14,14,0,0,1,21.27,41ZM34,41.64c1.61,0,3.23.11,4.83.25,0,.83,0,1.67-.07,2.5-1.65-.11-3.31-.23-5-.3h0C33.85,43.27,33.93,42.46,34,41.64Zm4.83-.43c-1.59-.15-3.19-.24-4.79-.32a17,17,0,0,0,0-1.75l4.75,0C38.8,39.86,38.82,40.54,38.81,41.21Zm-5.44-.34c-2-.09-4.09-.14-6.13-.22,0-.58,0-1.16,0-1.73,2,.1,4.09.17,6.13.21C33.41,39.7,33.4,40.28,33.37,40.87Zm-6.83-.25-1.07,0c-1.37-.08-2.74-.13-4.11-.18.08-.61.17-1.22.25-1.83l3.25.22,1.71.1Q26.57,39.75,26.54,40.62Zm-5.81-.25c-1.64,0-3.28-.09-4.92-.11.13-.7.26-1.4.37-2.1,1.6.13,3.19.25,4.79.36C20.9,39.14,20.81,39.76,20.73,40.37Zm-5.62-.12q-2.27,0-4.53,0c.1-.85.22-1.7.33-2.54,1.52.16,3.05.3,4.57.42C15.37,38.82,15.24,39.53,15.11,40.25Zm-5.14,0H7.61c.07-1,.13-1.92.17-2.89.83.1,1.66.2,2.49.28C10.17,38.48,10.06,39.35,10,40.21Zm-2.88,5,.18-1.59,2.36.21-.09,1.58c-.82-.05-1.65-.08-2.49-.06A.29.29,0,0,0,7.09,45.26Zm3.17-1.34c1.43.11,2.86.19,4.29.26a13.92,13.92,0,0,0,0,1.71l-.56,0c-1.26-.11-2.5-.25-3.74-.35Q10.22,44.72,10.26,43.92Zm5,2a15.88,15.88,0,0,1,0-1.69c1.76.07,3.52.12,5.27.17a6,6,0,0,0,.41,1.75c-1.25-.11-2.5-.23-3.76-.25C16.51,45.87,15.87,45.9,15.23,45.9Zm6.51.3a5.94,5.94,0,0,1-.55-1.8l3.6.09,1.5,0-.15,1.85C24.67,46.36,23.2,46.31,21.74,46.2Zm11.77.2c.05-.53.11-1.08.17-1.62,1.67.06,3.36.1,5,.2,0,.54,0,1.07,0,1.61l-1.29-.08c-.88,0-1.76-.06-2.64-.07H33.51Zm3.66-10.55h1.24a24.36,24.36,0,0,1,.33,2.82c-1.58,0-3.16,0-4.75,0a11.48,11.48,0,0,0-.59-3l.2,0C34.8,35.77,36,35.84,37.17,35.85Zm-3.8,2.8c-2-.07-4.09-.18-6.12-.3,0-1-.09-2-.22-3,1.91.07,3.82.16,5.73.3A10.6,10.6,0,0,1,33.37,38.65Zm-6.8-.35-1.71-.1c-1.06-.07-2.13-.15-3.19-.24a10.38,10.38,0,0,0-.08-2.79c1.13,0,2.26,0,3.38.09l1.41,0C26.49,36.3,26.55,37.3,26.57,38.3ZM21,37.9c-1.58-.13-3.16-.28-4.74-.43a16.15,16.15,0,0,0,.16-2.5c1.49.08,3,.14,4.48.18A10.54,10.54,0,0,1,21,37.9Zm-5.23-3a18.72,18.72,0,0,1-.21,2.48c-1.52-.15-3.05-.29-4.57-.42.11-.84.22-1.67.31-2.51C12.8,34.68,14.29,34.82,15.79,34.92Z"/><path class="cls-6" d="M5.22,6.36A3.34,3.34,0,0,0,6,6.06a3.23,3.23,0,0,0,1.72.59A2.48,2.48,0,0,0,9,6.3a4.18,4.18,0,0,0,4.12-.07l.29-.16a1.93,1.93,0,0,0,.21.17,2.62,2.62,0,0,0,2.11.43,2.9,2.9,0,0,0,1-.44l.28-.2a3.71,3.71,0,0,0,.46.19,3.86,3.86,0,0,0,2.42,0,5.14,5.14,0,0,0,1.11-.53,5.21,5.21,0,0,0,.86.48l.49.2a4.17,4.17,0,0,0,3.34-.05A4.15,4.15,0,0,0,28.68,6,2.64,2.64,0,0,0,29,5.8l.36.15A5.7,5.7,0,0,0,32.91,6a4,4,0,0,0,2.73,0h0L36,5.89l.11.11a2.14,2.14,0,0,0,1.22.57,3.68,3.68,0,0,0,2.91-1,4,4,0,0,0,.57.45,3.12,3.12,0,0,0,1.36.5,2.46,2.46,0,0,0,1.76-.44,7,7,0,0,0,1.8.31,4.38,4.38,0,0,0,1.84-.31c.28.12.56.23.84.32a.35.35,0,0,0,.35-.08.39.39,0,0,0-.14-.65l-.27-.09A2.26,2.26,0,0,0,49,4.38c.24-1.27-.45-4-2.21-2.93A2.62,2.62,0,0,0,45.6,3.83a2.46,2.46,0,0,0,1.07,1.79l-.1,0a5,5,0,0,1-2.1-.12,3.38,3.38,0,0,0-.38-4.16.39.39,0,0,0-.46-.06c-1.24.58-3,1.79-2,3.33A3.24,3.24,0,0,0,43,5.76a1.17,1.17,0,0,1-.2.06,2.59,2.59,0,0,1-2.1-.76,3.41,3.41,0,0,0,.44-3.35.38.38,0,0,0-.45-.25c-2,.59-1.9,2.32-1,3.6a3.18,3.18,0,0,1-1,.6,1.94,1.94,0,0,1-2-.18A4.05,4.05,0,0,0,38.35,2.8c.08-.73-.3-1.47-1.12-1.42-1.32.08-1.83,2-1.82,3a2.57,2.57,0,0,0,.18.89,3.82,3.82,0,0,1-1.79.21c1.14-1,2.06-3.3.4-4.07a2.72,2.72,0,0,0-3.52,1.5,2.38,2.38,0,0,0,.91,2.24,3.54,3.54,0,0,0,.42.35,4.43,4.43,0,0,1-1.77-.06,5.12,5.12,0,0,1-.57-.17,2.43,2.43,0,0,0,.8-2.56c-.2-.67-.78-1.41-1.56-1.29-1,.16-1.42,1.59-1.36,2.43a2.18,2.18,0,0,0,.72,1.46,5.22,5.22,0,0,1-1,.3,3,3,0,0,1-.79,0c.9-1.12.63-2.84.27-4.14a.37.37,0,0,0-.36-.27c-2.28,0-3,3.23-1.44,4.57a3.87,3.87,0,0,1-2.21-.17,5.6,5.6,0,0,1-1.06-.5,3,3,0,0,0,.72-3.9.39.39,0,0,0-.51-.14c-1.15.5-2.5,1.43-2.12,2.87a2.78,2.78,0,0,0,.68,1.14,3.38,3.38,0,0,1-2.68.36l-.11,0a5.52,5.52,0,0,0,.83-1.36c.35-.8.69-2.15-.16-2.78s-2.22.11-2.63,1a2.9,2.9,0,0,0,.68,3.22,2.36,2.36,0,0,1-2.31.11,3.77,3.77,0,0,0,.67-.72,2.6,2.6,0,0,0,0-3.08,1.11,1.11,0,0,0-1.84.22,3,3,0,0,0,0,3.44A4.8,4.8,0,0,1,11.29,6a2.93,2.93,0,0,1-1.56-.28,5.11,5.11,0,0,0,1-1.65c.29-.76.82-2.4-.26-2.85-.82-.34-1.73.47-2.14,1.1a2.88,2.88,0,0,0,0,3.27.76.76,0,0,0,.11.14,1.72,1.72,0,0,1-.76.14,2.31,2.31,0,0,1-1.1-.33,3.13,3.13,0,0,0,.9-2.68A1.56,1.56,0,0,0,5.4,1.5C4.3,2,4.31,3.64,4.74,4.6a3.7,3.7,0,0,0,.66,1A1.78,1.78,0,0,1,5,5.71l-.13,0A.35.35,0,0,0,5.22,6.36ZM46.45,3.1c.22-.72,1-1.61,1.53-.64a2.15,2.15,0,0,1-.46,2.79A1.79,1.79,0,0,1,46.45,3.1ZM42.79,4.73c-1.38-1.06-.18-2.05.94-2.63a2.63,2.63,0,0,1,0,3.18A3.88,3.88,0,0,1,42.79,4.73ZM40.54,2.29a2.65,2.65,0,0,1-.34,2.23C39.63,3.71,39.54,2.76,40.54,2.29ZM36.23,3.62c.08-.41.71-2,1.33-1.37s-.7,2.14-1.29,2.65A2.26,2.26,0,0,1,36.23,3.62Zm-4.83,0C31,1.9,34.9,1.07,34.28,3.42a2.71,2.71,0,0,1-1.44,1.82A2.34,2.34,0,0,1,31.4,3.64ZM29.13,2.16c.65,0,.78,1.19.68,1.63A1.92,1.92,0,0,1,29,4.94a1.65,1.65,0,0,1-.65-.8C28.18,3.67,28.39,2.11,29.13,2.16Zm-4.29,2.2A2,2,0,0,1,26.1,2c.28,1.11.5,2.59-.44,3.4A1.6,1.6,0,0,1,24.84,4.36ZM21.89,1.94a2.35,2.35,0,0,1-.83,2.76,2.18,2.18,0,0,1-.5-.71C20.14,3,21.07,2.34,21.89,1.94Zm-5.12.18c.67-.52,1.33-.3,1.32.54a3.9,3.9,0,0,1-.93,2.21L17,5C16.18,4.27,15.77,2.9,16.77,2.12Zm-3.3.44c.56-.81,1,0,1,.74a2.23,2.23,0,0,1-1,1.83,2.09,2.09,0,0,1-.35-.8A2.34,2.34,0,0,1,13.47,2.56Zm-4.74.6c.18-.42.62-1.09,1.12-1.18.87-.15.42,1.13.26,1.61a4.35,4.35,0,0,1-1,1.73A1.89,1.89,0,0,1,8.73,3.16ZM6.48,2.32c.85.77.32,2.05-.47,2.8a2.58,2.58,0,0,1-.53-.71C5.12,3.72,5.3,1.27,6.48,2.32Z"/><path class="cls-7" d="M43.9,21.24c.25-3.51.54-7.23-.37-10.68-.11-.42-.73-.24-.65.18a40.84,40.84,0,0,1,.22,11.1c-.28,3.68-.41,7.26-.34,11a.43.43,0,0,0-.17,0,66,66,0,0,1-8.54-.37c-3-.2-6.09-.43-9.13-.69C18.93,31.2,13,30.37,7,29.78H7a.31.31,0,0,0,.22-.33A102,102,0,0,1,7.21,19c.08-3.44.29-6.86.67-10.28a36,36,0,0,0,6.31.5c2.77.05,5.53,0,8.29,0a142.91,142.91,0,0,1,20.48,1c.46.06.66-.65.19-.71A143.87,143.87,0,0,0,23,8.45c-2.74,0-5.48.06-8.22,0a36.57,36.57,0,0,1-7.09-.52.37.37,0,0,0-.38.56,77.89,77.89,0,0,0-.76,10.24c-.08,3.55.21,7.18-.09,10.71a.33.33,0,0,0,.38.35c-.24.11-.26.57,0,.63,5.85,1,11.85,1.47,17.76,2s11.94.78,17.91,1.16a.33.33,0,0,0,.37-.25.46.46,0,0,0,.68-.49A25.16,25.16,0,0,1,43.52,27C43.61,25.08,43.77,23.16,43.9,21.24Z"/><rect class="cls-8" width="56" height="56"/></g></g></svg>