<svg xmlns="http://www.w3.org/2000/svg" viewBox="0 0 56 56"><defs><style>.cls-1{fill:#e94589;opacity:0;}.cls-2{fill:#eb5b56;}.cls-3{fill:none;stroke:#c65555;stroke-linecap:round;stroke-linejoin:round;stroke-width:0.92px;}</style></defs><title>location_menu</title><g id="Layer_2" data-name="Layer 2"><g id="Freddy_Fox" data-name="Freddy Fox"><rect class="cls-1" width="56" height="56"/><path class="cls-2" d="M40.31,4.47a17.09,17.09,0,0,0-9.18-2.74,27.47,27.47,0,0,0-14.79,3.7c-4.1,2.4-5.73,7.39-5.6,12a36.84,36.84,0,0,0,2,9.89c3.13,10,9.47,17.66,14.76,26.6,8.44-9.78,14.31-16.8,16.93-30.07C45.68,17.45,46.34,8.7,40.31,4.47ZM34.78,21.4A7.7,7.7,0,0,1,25.91,25a8,8,0,0,1-5.17-6.7C20.28,13.65,23.4,9,28.25,9.71,33.68,10.5,37.63,16.18,34.78,21.4Z"/><path class="cls-3" d="M27.17,54.26c8.44-9.78,14.64-17.17,17.26-30.44,1.25-6.37,1.91-15.12-4.12-19.35a17.09,17.09,0,0,0-9.18-2.74,27.47,27.47,0,0,0-14.79,3.7c-4.1,2.4-5.73,7.39-5.6,12a36.84,36.84,0,0,0,2,9.89c3.13,10,9.57,17.79,14.85,26.74m4.53-42.78A7.53,7.53,0,0,1,34.78,21.4,7.7,7.7,0,0,1,25.91,25a8,8,0,0,1-5.17-6.7C20.28,13.65,23.4,9,28.25,9.71a9.74,9.74,0,0,1,3.89,1.38"/></g></g></svg>