<svg xmlns="http://www.w3.org/2000/svg" viewBox="0 0 56 56"><defs><style>.cls-1{fill:#e94589;opacity:0;}.cls-2{fill:#ffff87;}.cls-3{fill:none;stroke:#fce154;stroke-linecap:round;stroke-linejoin:round;stroke-width:3px;}</style></defs><title>type_menu</title><g id="Layer_2" data-name="Layer 2"><g id="Freddy_Fox" data-name="Freddy Fox"><rect class="cls-1" width="56" height="56"/><path class="cls-2" d="M20.57,20s8-14.14,9.58-16c0,0,5.33,10.44,6.64,16,0,0,14,1.53,15.56,2.18,0,0-9.79,8.71-10,9.58l5.33,16.1S36.46,44.26,31.89,39.8c0,0-14.47,9.47-16,10.12,0,0,1.42-18.07,1.75-18.72,0,0-12.76-3.48-14.37-6.53Z"/><path class="cls-3" d="M20.57,20s8-14.14,9.58-16c0,0,5.33,10.44,6.64,16,0,0,14,1.53,15.56,2.18,0,0-9.79,8.71-10,9.58l5.33,16.1S36.46,44.26,31.89,39.8c0,0-14.47,9.47-16,10.12,0,0,1.42-18.07,1.75-18.72,0,0-12.76-3.48-14.37-6.53Z"/></g></g></svg>